#!OML:ASF H:\Pregnant\Project 1\Capture day 1\Session 1\femalepreg.ASF
:FULLY-SPECIFIED
:DEGREES
863
root 8.22115 20.1725 3.70772 -159.058 178.378 -180.605
lowerback -18.4593 0.378163 -0.207164
upperback -6.67654 0.480831 1.30982
thorax 3.15459 0.257803 1.60283
lowerneck -19.6082 1.51586 3.36462
upperneck 40.891 0.252282 1.66425
head 18.8923 0.914623 0.26388
rclavicle -9.41121e-015 -1.51076e-014
rhumerus -38.8424 -11.2682 -72.5917
rradius 32.0199
rwrist -1.55401
rhand -9.1569 -16.0339
rfingers 7.12502
rthumb 16.7954 -45.3274
lclavicle -9.41121e-015 -1.51076e-014
lhumerus -39.8479 -1.53224 80.6581
lradius 26.2753
lwrist 38.2318
lhand -16.9304 -3.08821
lfingers 7.12502
lthumb 9.30245 26.6865
rfemur -41.2224 0.614449 25.7515
rtibia 43.7244
rfoot -18.6471 -21.5789
rtoes 2.0586
lfemur -20.3674 0.08246 -28.9687
ltibia 19.8169
lfoot -10.2348 34.0735
ltoes -20.7915
864
root 8.21057 20.1716 3.73552 -159.147 178.793 -180.626
lowerback -18.5043 0.387356 0.0272122
upperback -6.62434 0.443553 1.42158
thorax 3.23565 0.236634 1.58131
lowerneck -19.5919 1.61892 3.44024
upperneck 40.909 0.438031 1.52397
head 18.9009 0.9774 0.221985
rclavicle -6.06914e-015 2.38542e-015
rhumerus -38.7867 -11.0404 -72.6281
rradius 32.288
rwrist -1.92515
rhand -9.56481 -15.9646
rfingers 7.12502
rthumb 16.4027 -45.291
lclavicle -6.06914e-015 2.38542e-015
lhumerus -40.0491 -1.73883 81.17
lradius 26.1221
lwrist 38.2971
lhand -16.7226 -2.62622
lfingers 7.12502
lthumb 9.50299 27.1395
rfemur -41.0039 0.778127 25.766
rtibia 43.6478
rfoot -18.653 -21.3802
rtoes 1.85467
lfemur -20.0476 0.221551 -28.9784
ltibia 19.6789
lfoot -10.4044 34.3518
ltoes -20.5849
865
root 8.19979 20.1699 3.76381 -159.232 179.203 -180.683
lowerback -18.5655 0.412897 0.307931
upperback -6.55201 0.418722 1.52915
thorax 3.34642 0.22128 1.53198
lowerneck -19.6267 1.72283 3.5303
upperneck 40.9297 0.614767 1.38733
head 18.9264 1.03964 0.177945
rclavicle 5.21189e-015 5.56597e-015
rhumerus -38.704 -10.8491 -72.6655
rradius 32.5227
rwrist -2.31439
rhand -10.0404 -15.8964
rfingers 7.12502
rthumb 15.9447 -45.2601
lclavicle 5.21189e-015 5.56597e-015
lhumerus -40.1996 -1.96281 81.6515
lradius 25.9622
lwrist 38.2897
lhand -16.4467 -2.35569
lfingers 7.12502
lthumb 9.76922 27.3977
rfemur -40.7788 0.945693 25.8202
rtibia 43.5552
rfoot -18.6461 -21.1803
rtoes 1.62274
lfemur -19.7831 0.3738 -28.9515
ltibia 19.6392
lfoot -10.6217 34.6343
ltoes -20.4015
866
root 8.18881 20.1677 3.79231 -159.303 179.611 -180.766
lowerback -18.6251 0.447918 0.620993
upperback -6.49963 0.400203 1.63577
thorax 3.43498 0.209286 1.46445
lowerneck -19.6226 1.82323 3.6375
upperneck 40.9482 0.783624 1.24482
head 18.9406 1.1006 0.125923
rclavicle 1.0312e-014 1.43125e-014
rhumerus -38.6567 -10.6773 -72.6844
rradius 32.7207
rwrist -2.6857
rhand -10.5481 -15.849
rfingers 7.12502
rthumb 15.4558 -45.2511
lclavicle 1.0312e-014 1.43125e-014
lhumerus -40.3773 -2.19709 82.1029
lradius 25.8133
lwrist 38.2255
lhand -16.1169 -2.30404
lfingers 7.12502
lthumb 10.0873 27.4342
rfemur -40.5639 1.11944 25.9032
rtibia 43.4518
rfoot -18.6288 -20.9816
rtoes 1.3767
lfemur -19.5831 0.543169 -28.8994
ltibia 19.6879
lfoot -10.8682 34.9135
ltoes -20.2566
867
root 8.17756 20.1649 3.82111 -159.362 180.009 -180.865
lowerback -18.6868 0.491697 0.958472
upperback -6.4569 0.388554 1.73564
thorax 3.5142 0.200837 1.37734
lowerneck -19.6103 1.91629 3.75534
upperneck 40.9729 0.93486 1.10678
head 18.9571 1.15713 0.0704068
rclavicle -8.39865e-015 -1.59028e-015
rhumerus -38.6341 -10.5456 -72.6842
rradius 32.89
rwrist -3.0208
rhand -11.0309 -15.8495
rfingers 7.12502
rthumb 14.9907 -45.2869
lclavicle -8.39865e-015 -1.59028e-015
lhumerus -40.5626 -2.46609 82.537
lradius 25.7144
lwrist 38.186
lhand -15.8543 -2.26556
lfingers 7.12502
lthumb 10.3407 27.4602
rfemur -40.358 1.29788 26.0043
rtibia 43.3463
rfoot -18.6111 -20.7925
rtoes 1.1306
lfemur -19.434 0.724982 -28.8308
ltibia 19.8067
lfoot -11.1278 35.1828
ltoes -20.1697
868
root 8.1662 20.1618 3.84979 -159.407 180.401 -180.97
lowerback -18.7431 0.538749 1.30298
upperback -6.43248 0.379745 1.83524
thorax 3.57076 0.194055 1.28642
lowerneck -19.5711 2.00136 3.86603
upperneck 41.007 1.07362 0.978687
head 18.9724 1.20925 0.0181225
rclavicle -4.34841e-016 -1.78906e-014
rhumerus -38.6421 -10.4285 -72.6584
rradius 33.0291
rwrist -3.3132
rhand -11.5051 -15.8395
rfingers 7.12502
rthumb 14.5339 -45.3104
lclavicle -4.34841e-016 -1.78906e-014
lhumerus -40.7741 -2.73757 82.9518
lradius 25.6615
lwrist 38.1535
lhand -15.647 -2.30353
lfingers 7.12502
lthumb 10.5407 27.4122
rfemur -40.1698 1.48332 26.1114
rtibia 43.2492
rfoot -18.5954 -20.6166
rtoes 0.891997
lfemur -19.3296 0.919616 -28.7571
ltibia 19.977
lfoot -11.3877 35.4388
ltoes -20.1359
869
root 8.15441 20.1585 3.87772 -159.43 180.776 -181.066
lowerback -18.7915 0.578463 1.63317
upperback -6.44249 0.364277 1.93712
thorax 3.58624 0.18419 1.20434
lowerneck -19.4664 2.07859 3.96843
upperneck 41.0442 1.20436 0.857502
head 18.9716 1.25804 -0.0318086
rclavicle -3.21783e-015 -1.27222e-014
rhumerus -38.7012 -10.3168 -72.5991
rradius 33.142
rwrist -3.54637
rhand -11.9313 -15.8641
rfingers 7.12502
rthumb 14.1232 -45.3641
lclavicle -3.21783e-015 -1.27222e-014
lhumerus -41.0376 -3.00125 83.3499
lradius 25.6631
lwrist 38.1512
lhand -15.541 -2.37443
lfingers 7.12502
lthumb 10.6429 27.336
rfemur -40.0149 1.67163 26.2115
rtibia 43.17
rfoot -18.5924 -20.4591
rtoes 0.689698
lfemur -19.2757 1.13374 -28.6917
ltibia 20.1837
lfoot -11.6239 35.6618
ltoes -20.1843
